<?xml version="1.0" encoding="utf-8"?>
<!-- Generator: Adobe Illustrator 15.1.0, SVG Export Plug-In  -->
<!DOCTYPE svg PUBLIC "-//W3C//DTD SVG 1.1//EN" "http://www.w3.org/Graphics/SVG/1.1/DTD/svg11.dtd" [
	<!ENTITY ns_flows "http://ns.adobe.com/Flows/1.0/">
]>
<svg version="1.1"
	 xmlns="http://www.w3.org/2000/svg" xmlns:xlink="http://www.w3.org/1999/xlink" xmlns:a="http://ns.adobe.com/AdobeSVGViewerExtensions/3.0/"
	 x="0px" y="0px" viewBox="115.611 15.619 508 287"
	 overflow="visible" enable-background="new 115.611 15.619 508 287" xml:space="preserve">
<defs>
</defs>
<rect x="168.611" y="155.619" fill="#666666" width="94" height="94"/>
<path fill="#333333" d="M259.611,158.619v88h-88v-88H259.611 M263.611,152.619h-96c-1.1,0-2,0.9-2,2v96c0,1.1,0.9,2,2,2h96
	c1.1,0,2-0.9,2-2v-96C265.611,153.519,264.71,152.619,263.611,152.619L263.611,152.619z"/>
<path fill="#595959" d="M257.611,180.619v64h-84v-64H257.611 M259.611,178.619h-88v68h88V178.619L259.611,178.619z"/>
<rect x="171.611" y="178.619" fill="#4D4D4D" width="88" height="4"/>
<rect x="171.611" y="158.619" fill="#FBB03B" width="88" height="20"/>
<polygon opacity="0.66" fill="#FCEE21" points="224.611,178.619 206.611,178.619 226.611,158.619 244.611,158.619 "/>
<polygon opacity="0.66" fill="#FCEE21" points="233.611,178.619 227.611,178.619 247.611,158.619 253.611,158.619 "/>
<rect x="173.611" y="152.619" fill="#404040" width="83" height="3"/>
<rect x="173.611" y="249.619" fill="#262626" width="83" height="3"/>
<g>
	<defs>
		<rect id="SVGID_1_" x="171.611" y="178.619" width="88" height="68"/>
	</defs>
	<clipPath id="SVGID_2_">
		<use xlink:href="#SVGID_1_"  overflow="visible"/>
	</clipPath>
	<g opacity="0.3" clip-path="url(#SVGID_2_)">
		<g>
			<line fill="none" stroke="#000000" stroke-miterlimit="10" x1="0.354" y1="140.886" x2="165.073" y2="306.353"/>
			<line fill="none" stroke="#000000" stroke-miterlimit="10" x1="6.308" y1="140.886" x2="171.026" y2="306.353"/>
			<line fill="none" stroke="#000000" stroke-miterlimit="10" x1="12.261" y1="140.886" x2="176.979" y2="306.353"/>
			<line fill="none" stroke="#000000" stroke-miterlimit="10" x1="18.214" y1="140.886" x2="182.932" y2="306.353"/>
			<line fill="none" stroke="#000000" stroke-miterlimit="10" x1="24.167" y1="140.886" x2="188.885" y2="306.353"/>
			<line fill="none" stroke="#000000" stroke-miterlimit="10" x1="30.12" y1="140.886" x2="194.838" y2="306.353"/>
			<line fill="none" stroke="#000000" stroke-miterlimit="10" x1="36.073" y1="140.886" x2="200.791" y2="306.353"/>
			<line fill="none" stroke="#000000" stroke-miterlimit="10" x1="42.026" y1="140.886" x2="206.744" y2="306.353"/>
			<line fill="none" stroke="#000000" stroke-miterlimit="10" x1="47.979" y1="140.886" x2="212.697" y2="306.353"/>
			<line fill="none" stroke="#000000" stroke-miterlimit="10" x1="53.932" y1="140.886" x2="218.651" y2="306.353"/>
			<line fill="none" stroke="#000000" stroke-miterlimit="10" x1="59.886" y1="140.886" x2="224.603" y2="306.353"/>
			<line fill="none" stroke="#000000" stroke-miterlimit="10" x1="65.838" y1="140.886" x2="230.556" y2="306.353"/>
			<line fill="none" stroke="#000000" stroke-miterlimit="10" x1="71.792" y1="140.886" x2="236.509" y2="306.353"/>
			<line fill="none" stroke="#000000" stroke-miterlimit="10" x1="77.745" y1="140.886" x2="242.462" y2="306.353"/>
			<line fill="none" stroke="#000000" stroke-miterlimit="10" x1="83.698" y1="140.886" x2="248.416" y2="306.353"/>
			<line fill="none" stroke="#000000" stroke-miterlimit="10" x1="89.651" y1="140.886" x2="254.369" y2="306.353"/>
			<line fill="none" stroke="#000000" stroke-miterlimit="10" x1="95.604" y1="140.886" x2="260.322" y2="306.353"/>
			<line fill="none" stroke="#000000" stroke-miterlimit="10" x1="101.557" y1="140.886" x2="266.275" y2="306.353"/>
			<line fill="none" stroke="#000000" stroke-miterlimit="10" x1="107.51" y1="140.886" x2="272.228" y2="306.353"/>
			<line fill="none" stroke="#000000" stroke-miterlimit="10" x1="113.463" y1="140.886" x2="278.181" y2="306.353"/>
			<line fill="none" stroke="#000000" stroke-miterlimit="10" x1="119.417" y1="140.886" x2="284.134" y2="306.353"/>
			<line fill="none" stroke="#000000" stroke-miterlimit="10" x1="125.37" y1="140.886" x2="290.087" y2="306.353"/>
			<line fill="none" stroke="#000000" stroke-miterlimit="10" x1="131.323" y1="140.886" x2="296.041" y2="306.353"/>
			<line fill="none" stroke="#000000" stroke-miterlimit="10" x1="137.276" y1="140.886" x2="301.994" y2="306.353"/>
			<line fill="none" stroke="#000000" stroke-miterlimit="10" x1="143.229" y1="140.886" x2="307.947" y2="306.353"/>
			<line fill="none" stroke="#000000" stroke-miterlimit="10" x1="149.182" y1="140.886" x2="313.899" y2="306.353"/>
			<line fill="none" stroke="#000000" stroke-miterlimit="10" x1="155.135" y1="140.886" x2="319.852" y2="306.353"/>
			<line fill="none" stroke="#000000" stroke-miterlimit="10" x1="161.088" y1="140.886" x2="325.805" y2="306.353"/>
			<line fill="none" stroke="#000000" stroke-miterlimit="10" x1="167.041" y1="140.886" x2="331.759" y2="306.353"/>
			<line fill="none" stroke="#000000" stroke-miterlimit="10" x1="172.995" y1="140.886" x2="337.711" y2="306.353"/>
			<line fill="none" stroke="#000000" stroke-miterlimit="10" x1="178.947" y1="140.886" x2="343.665" y2="306.353"/>
			<line fill="none" stroke="#000000" stroke-miterlimit="10" x1="184.9" y1="140.886" x2="349.618" y2="306.353"/>
			<line fill="none" stroke="#000000" stroke-miterlimit="10" x1="190.854" y1="140.886" x2="355.571" y2="306.353"/>
			<line fill="none" stroke="#000000" stroke-miterlimit="10" x1="196.806" y1="140.886" x2="361.524" y2="306.353"/>
			<line fill="none" stroke="#000000" stroke-miterlimit="10" x1="202.759" y1="140.886" x2="367.477" y2="306.353"/>
			<line fill="none" stroke="#000000" stroke-miterlimit="10" x1="208.713" y1="140.886" x2="373.429" y2="306.353"/>
			<line fill="none" stroke="#000000" stroke-miterlimit="10" x1="214.666" y1="140.886" x2="379.383" y2="306.353"/>
			<line fill="none" stroke="#000000" stroke-miterlimit="10" x1="220.619" y1="140.886" x2="385.336" y2="306.353"/>
			<line fill="none" stroke="#000000" stroke-miterlimit="10" x1="226.572" y1="140.886" x2="391.29" y2="306.353"/>
			<line fill="none" stroke="#000000" stroke-miterlimit="10" x1="232.525" y1="140.886" x2="397.242" y2="306.353"/>
			<line fill="none" stroke="#000000" stroke-miterlimit="10" x1="238.478" y1="140.886" x2="403.195" y2="306.353"/>
			<line fill="none" stroke="#000000" stroke-miterlimit="10" x1="244.431" y1="140.886" x2="409.148" y2="306.353"/>
			<line fill="none" stroke="#000000" stroke-miterlimit="10" x1="250.384" y1="140.886" x2="415.101" y2="306.353"/>
			<line fill="none" stroke="#000000" stroke-miterlimit="10" x1="256.337" y1="140.886" x2="421.054" y2="306.353"/>
			<line fill="none" stroke="#000000" stroke-miterlimit="10" x1="262.291" y1="140.886" x2="427.007" y2="306.353"/>
			<line fill="none" stroke="#000000" stroke-miterlimit="10" x1="268.244" y1="140.886" x2="432.96" y2="306.353"/>
			<line fill="none" stroke="#000000" stroke-miterlimit="10" x1="274.197" y1="140.886" x2="438.914" y2="306.353"/>
			<line fill="none" stroke="#000000" stroke-miterlimit="10" x1="280.15" y1="140.886" x2="444.867" y2="306.353"/>
		</g>
		<g>
			<line fill="none" stroke="#000000" stroke-miterlimit="10" x1="140.252" y1="446.886" x2="304.97" y2="281.419"/>
			<line fill="none" stroke="#000000" stroke-miterlimit="10" x1="140.252" y1="440.905" x2="304.97" y2="275.438"/>
			<line fill="none" stroke="#000000" stroke-miterlimit="10" x1="140.252" y1="434.926" x2="304.97" y2="269.459"/>
			<line fill="none" stroke="#000000" stroke-miterlimit="10" x1="140.252" y1="428.945" x2="304.97" y2="263.479"/>
			<line fill="none" stroke="#000000" stroke-miterlimit="10" x1="140.252" y1="422.965" x2="304.97" y2="257.498"/>
			<line fill="none" stroke="#000000" stroke-miterlimit="10" x1="140.252" y1="416.985" x2="304.97" y2="251.519"/>
			<line fill="none" stroke="#000000" stroke-miterlimit="10" x1="140.252" y1="411.005" x2="304.97" y2="245.538"/>
			<line fill="none" stroke="#000000" stroke-miterlimit="10" x1="140.252" y1="405.024" x2="304.97" y2="239.558"/>
			<line fill="none" stroke="#000000" stroke-miterlimit="10" x1="140.251" y1="399.045" x2="304.97" y2="233.578"/>
			<line fill="none" stroke="#000000" stroke-miterlimit="10" x1="140.252" y1="393.064" x2="304.97" y2="227.598"/>
			<line fill="none" stroke="#000000" stroke-miterlimit="10" x1="140.252" y1="387.084" x2="304.97" y2="221.617"/>
			<line fill="none" stroke="#000000" stroke-miterlimit="10" x1="140.252" y1="381.104" x2="304.97" y2="215.638"/>
			<line fill="none" stroke="#000000" stroke-miterlimit="10" x1="140.252" y1="375.124" x2="304.97" y2="209.657"/>
			<line fill="none" stroke="#000000" stroke-miterlimit="10" x1="140.252" y1="369.144" x2="304.97" y2="203.678"/>
			<line fill="none" stroke="#000000" stroke-miterlimit="10" x1="140.252" y1="363.164" x2="304.97" y2="197.697"/>
			<line fill="none" stroke="#000000" stroke-miterlimit="10" x1="140.251" y1="357.184" x2="304.97" y2="191.717"/>
			<line fill="none" stroke="#000000" stroke-miterlimit="10" x1="140.252" y1="351.204" x2="304.97" y2="185.737"/>
			<line fill="none" stroke="#000000" stroke-miterlimit="10" x1="140.252" y1="345.223" x2="304.97" y2="179.757"/>
			<line fill="none" stroke="#000000" stroke-miterlimit="10" x1="140.251" y1="339.243" x2="304.97" y2="173.776"/>
			<line fill="none" stroke="#000000" stroke-miterlimit="10" x1="140.252" y1="333.264" x2="304.97" y2="167.796"/>
			<line fill="none" stroke="#000000" stroke-miterlimit="10" x1="140.252" y1="327.283" x2="304.97" y2="161.816"/>
			<line fill="none" stroke="#000000" stroke-miterlimit="10" x1="140.251" y1="321.303" x2="304.97" y2="155.836"/>
			<line fill="none" stroke="#000000" stroke-miterlimit="10" x1="140.252" y1="315.322" x2="304.97" y2="149.856"/>
			<line fill="none" stroke="#000000" stroke-miterlimit="10" x1="140.252" y1="309.343" x2="304.97" y2="143.876"/>
			<line fill="none" stroke="#000000" stroke-miterlimit="10" x1="140.252" y1="303.362" x2="304.97" y2="137.896"/>
			<line fill="none" stroke="#000000" stroke-miterlimit="10" x1="140.252" y1="297.382" x2="304.97" y2="131.916"/>
			<line fill="none" stroke="#000000" stroke-miterlimit="10" x1="140.252" y1="291.402" x2="304.97" y2="125.936"/>
			<line fill="none" stroke="#000000" stroke-miterlimit="10" x1="140.252" y1="285.422" x2="304.97" y2="119.955"/>
			<line fill="none" stroke="#000000" stroke-miterlimit="10" x1="140.252" y1="279.441" x2="304.97" y2="113.975"/>
			<line fill="none" stroke="#000000" stroke-miterlimit="10" x1="140.251" y1="273.462" x2="304.97" y2="107.995"/>
			<line fill="none" stroke="#000000" stroke-miterlimit="10" x1="140.252" y1="267.481" x2="304.97" y2="102.015"/>
			<line fill="none" stroke="#000000" stroke-miterlimit="10" x1="140.252" y1="261.502" x2="304.97" y2="96.035"/>
			<line fill="none" stroke="#000000" stroke-miterlimit="10" x1="140.251" y1="255.521" x2="304.97" y2="90.055"/>
			<line fill="none" stroke="#000000" stroke-miterlimit="10" x1="140.252" y1="249.541" x2="304.97" y2="84.074"/>
			<line fill="none" stroke="#000000" stroke-miterlimit="10" x1="140.252" y1="243.561" x2="304.97" y2="78.094"/>
			<line fill="none" stroke="#000000" stroke-miterlimit="10" x1="140.252" y1="237.581" x2="304.97" y2="72.114"/>
			<line fill="none" stroke="#000000" stroke-miterlimit="10" x1="140.252" y1="231.601" x2="304.97" y2="66.134"/>
			<line fill="none" stroke="#000000" stroke-miterlimit="10" x1="140.252" y1="225.621" x2="304.97" y2="60.154"/>
			<line fill="none" stroke="#000000" stroke-miterlimit="10" x1="140.252" y1="219.641" x2="304.97" y2="54.174"/>
			<line fill="none" stroke="#000000" stroke-miterlimit="10" x1="140.251" y1="213.66" x2="304.97" y2="48.194"/>
			<line fill="none" stroke="#000000" stroke-miterlimit="10" x1="140.252" y1="207.681" x2="304.97" y2="42.214"/>
			<line fill="none" stroke="#000000" stroke-miterlimit="10" x1="140.252" y1="201.7" x2="304.97" y2="36.233"/>
			<line fill="none" stroke="#000000" stroke-miterlimit="10" x1="140.251" y1="195.72" x2="304.97" y2="30.253"/>
			<line fill="none" stroke="#000000" stroke-miterlimit="10" x1="140.252" y1="189.74" x2="304.97" y2="24.273"/>
			<line fill="none" stroke="#000000" stroke-miterlimit="10" x1="140.252" y1="183.76" x2="304.97" y2="18.293"/>
			<line fill="none" stroke="#000000" stroke-miterlimit="10" x1="140.252" y1="177.779" x2="304.97" y2="12.312"/>
			<line fill="none" stroke="#000000" stroke-miterlimit="10" x1="140.252" y1="171.799" x2="304.97" y2="6.333"/>
			<line fill="none" stroke="#000000" stroke-miterlimit="10" x1="140.252" y1="165.819" x2="304.97" y2="0.353"/>
		</g>
	</g>
</g>
<rect x="177.611" y="163.619" opacity="0.35" fill="#FFFFFF" width="5" height="2"/>
<path fill="#4D4D4D" d="M175.611,153.619c0-1.1-0.9-2-2-2l0,0c-1.1,0-2,0-5,0c-2,0-4,2-4,4c0,4,0,4,0,4c0-0.55,0-0.1,0,1l0,0
	c0,1.1,0.9,2,2,2h4c1.1,0,2-0.675,2-1.5s0.675-1.5,1.5-1.5s1.5-0.9,1.5-2V153.619z"/>
<path fill="#4D4D4D" d="M264.611,162.619c1.1,0,2-0.9,2-2l0,0c0-1.1,0-2,0-5c0-2-2-4-4-4c-4,0-4,0-4,0c0.55,0,0.1,0-1,0l0,0
	c-1.1,0-2,0.9-2,2v4c0,1.1,0.675,2,1.5,2s1.5,0.675,1.5,1.5s0.9,1.5,2,1.5H264.611z"/>
<path fill="#4D4D4D" d="M255.611,251.619c0,1.1,0.9,2,2,2l0,0c1.1,0,2,0,5,0c2,0,4-2,4-4c0-4,0-4,0-4c0,0.55,0,0.1,0-1l0,0
	c0-1.1-0.9-2-2-2h-4c-1.1,0-2,0.675-2,1.5s-0.675,1.5-1.5,1.5s-1.5,0.9-1.5,2V251.619z"/>
<path fill="#4D4D4D" d="M166.611,242.619c-1.1,0-2,0.9-2,2l0,0c0,1.1,0,2,0,5c0,2,2,4,4,4c4,0,4,0,4,0c-0.55,0-0.1,0,1,0l0,0
	c1.1,0,2-0.9,2-2v-4c0-1.1-0.675-2-1.5-2s-1.5-0.675-1.5-1.5s-0.9-1.5-2-1.5H166.611z"/>
<rect x="176.611" y="162.619" fill="#B3151B" width="7" height="12"/>
<rect x="176.612" y="162.619" fill="#ED1C24" width="7" height="6"/>
<path fill="#333333" d="M244.077,172.155c1.953,1.953,4.949,2.121,7.07,0l-7.07-7.071
	C241.955,167.205,242.123,170.201,244.077,172.155z"/>
<path fill="#424242" d="M251.147,165.083c-1.953-1.954-4.949-2.121-7.07,0l7.07,7.071
	C253.269,170.033,253.101,167.037,251.147,165.083z"/>
<path fill="#333333" d="M237.68,172.566c2.181-1.696,2.72-4.649,0.878-7.017l-7.894,6.14
	C232.506,174.057,235.5,174.261,237.68,172.566z"/>
<path fill="#424242" d="M231.541,164.672c-2.18,1.696-2.572,4.837-0.876,7.017l7.893-6.141
	C236.862,163.37,233.72,162.977,231.541,164.672z"/>
<path fill="#333333" d="M225.145,172.154c1.954-1.954,1.953-5.118,0-7.071l-7.071,7.071
	C220.027,174.107,223.192,174.107,225.145,172.154z"/>
<path fill="#424242" d="M218.074,165.083c-1.953,1.954-1.953,5.118,0,7.071l7.071-7.071
	C223.192,163.13,220.028,163.129,218.074,165.083z"/>
<path fill="#424242" d="M212.146,165.083c-1.953-1.952-5.119-1.952-7.071,0l7.071,7.071
	C214.099,170.202,214.099,167.036,212.146,165.083z"/>
<path fill="#333333" d="M205.075,172.155c1.953,1.952,5.119,1.952,7.071,0l-7.071-7.071
	C203.123,167.036,203.123,170.202,205.075,172.155z"/>
<polygon fill="#ED1E79" points="203.715,224.095 211.663,206.269 212.287,204.869 214.183,205.436 244.839,214.602 236.92,218.263 
	242.59,188.549 243.795,182.232 252.151,182.197 284.902,182.062 271.942,189.86 279.884,159.311 283.606,144.996 300.916,149.892 
	347.537,163.081 333.978,200.713 289.659,181.135 310.689,171.717 295.241,199.244 289.934,208.699 282.281,207.042 
	250.272,200.111 259.833,193.76 248.094,221.64 245.287,228.307 240.175,225.301 212.593,209.084 215.113,208.251 "/>
<g>
	<path fill="#ED1E79" d="M575.633,145.373c-1.018,10.953-10.741,21.312-21.607,23.021l-257.28,40.457
		c-10.866,1.708-18.924-5.855-17.906-16.808l4.008-43.13c1.018-10.953,10.741-21.312,21.607-23.021l257.281-40.457
		c10.866-1.709,18.924,5.854,17.906,16.807L575.633,145.373z"/>
</g>
<text transform="matrix(0.9542 -0.15 -0.1056 0.9944 296.686 186.6191)" fill="#FFFFFF" font-family="'ArialRoundedMTBold'" font-size="55.2233" letter-spacing="-1.035">noisy URIs</text>
</svg>
